<?xml version="1.0" standalone="no"?>
<!DOCTYPE svg PUBLIC "-//W3C//DTD SVG 20010904//EN"
 "http://www.w3.org/TR/2001/REC-SVG-20010904/DTD/svg10.dtd">
<svg version="1.0" xmlns="http://www.w3.org/2000/svg"
 width="1035.000000pt" height="1035.000000pt" viewBox="0 0 1035.000000 1035.000000"
 preserveAspectRatio="xMidYMid meet">

<g transform="translate(0.000000,1035.000000) scale(0.100000,-0.100000)"
fill="#000000" stroke="none">
<path d="M6945 8813 c-1088 -38 -2086 -619 -2660 -1547 -75 -121 -106 -180
-310 -581 -87 -170 -179 -350 -205 -400 -26 -49 -125 -243 -221 -430 -95 -187
-235 -461 -311 -610 -76 -148 -189 -370 -251 -492 -62 -123 -116 -222 -122
-220 -5 2 -69 118 -141 258 -71 140 -344 670 -606 1179 -261 509 -618 1202
-791 1540 -174 338 -336 651 -359 695 l-43 80 -100 -4 c-55 -1 -105 -6 -110
-10 -7 -3 100 -226 270 -561 154 -305 459 -910 679 -1345 219 -434 474 -938
566 -1120 92 -181 270 -532 395 -780 125 -247 231 -454 236 -459 4 -5 347 671
762 1501 415 830 779 1549 807 1599 362 616 952 1098 1633 1333 343 118 622
164 997 164 461 0 844 -82 1265 -270 759 -340 1382 -1036 1639 -1830 360
-1117 72 -2322 -753 -3140 -395 -392 -875 -663 -1411 -798 -264 -66 -453 -88
-745 -88 -284 0 -472 22 -735 88 -629 158 -1172 499 -1605 1007 -32 38 -60 68
-64 68 -3 0 -41 -27 -84 -61 l-77 -60 62 -77 c83 -101 311 -330 418 -419 446
-372 976 -615 1552 -713 350 -59 776 -56 1131 10 543 99 1058 341 1491 698
127 105 345 327 450 457 398 497 638 1069 711 1700 22 187 22 542 0 730 -45
387 -147 738 -315 1080 -474 967 -1391 1638 -2453 1795 -116 17 -456 43 -497
38 -8 -1 -51 -3 -95 -5z"/>
<path d="M6925 7789 c-526 -29 -999 -257 -1411 -680 -247 -254 -463 -574 -639
-943 -34 -72 -240 -489 -456 -926 -217 -437 -651 -1313 -964 -1947 -483 -976
-572 -1150 -582 -1136 -7 9 -122 228 -255 487 -225 439 -524 1021 -2029 3948
l-584 1137 -3 -231 -2 -230 881 -1732 c485 -952 921 -1807 969 -1901 48 -93
172 -336 276 -540 103 -203 264 -518 356 -700 93 -181 217 -426 276 -542 59
-117 110 -213 113 -213 7 0 1265 2509 1494 2980 82 168 229 469 328 670 98
201 240 491 314 645 170 351 210 423 338 615 119 178 196 274 333 414 403 412
851 609 1382 608 327 0 594 -61 885 -202 916 -443 1361 -1499 1039 -2470 -173
-523 -546 -950 -1039 -1191 -424 -206 -916 -257 -1376 -143 -417 103 -792 340
-1074 678 -116 140 -248 360 -314 529 -13 31 -29 57 -35 57 -16 0 -179 -59
-188 -68 -4 -4 12 -53 36 -109 311 -731 984 -1242 1776 -1349 156 -21 446 -18
607 5 486 72 916 286 1258 626 134 133 211 227 305 371 180 277 294 579 346
914 24 158 25 483 1 635 -103 661 -448 1207 -992 1567 -404 268 -876 394
-1370 367z"/>
<path d="M5786 5878 c-86 -23 -156 -130 -140 -213 15 -80 70 -129 192 -169
102 -34 140 -59 158 -103 40 -94 -34 -183 -151 -183 -51 0 -118 29 -137 60
-16 25 -27 25 -58 -1 l-25 -21 42 -38 c24 -21 63 -43 90 -51 56 -15 146 -15
188 1 81 31 134 105 135 188 0 100 -52 154 -197 202 -123 42 -163 76 -163 142
0 60 28 102 84 123 59 23 121 14 174 -25 l39 -28 28 22 28 23 -36 27 c-69 53
-158 68 -251 44z"/>
<path d="M7162 5870 c-256 -84 -333 -434 -136 -620 89 -84 197 -118 318 -98
124 19 221 93 274 206 24 50 27 69 27 162 0 95 -3 111 -28 162 -81 165 -276
246 -455 188z m236 -66 c125 -52 198 -199 172 -346 -29 -159 -152 -257 -309
-246 -112 8 -191 64 -240 168 -34 73 -36 200 -5 271 55 120 165 185 294 172
30 -3 70 -11 88 -19z"/>
<path d="M6232 5518 l3 -353 35 0 35 0 3 168 2 167 190 0 190 0 2 -167 3 -168
33 -3 32 -3 0 355 0 356 -35 0 -34 0 -3 -152 -3 -153 -187 -3 -188 -2 0 155 0
155 -40 0 -40 0 2 -352z"/>
<path d="M7802 5518 l3 -353 33 -3 c37 -4 34 -21 32 184 l-1 141 108 5 c125 6
178 24 222 74 50 56 55 162 11 223 -43 62 -87 75 -258 79 l-152 4 2 -354z
m270 281 c84 -23 119 -96 83 -172 -25 -53 -70 -70 -185 -71 l-95 -1 -3 114
c-1 63 0 121 2 128 7 16 143 18 198 2z"/>
</g>
</svg>
